<svg width="191" height="204" viewBox="0 0 191 204" fill="none" xmlns="http://www.w3.org/2000/svg">
<path d="M4.95911e-05 92.9703V0H97.6871C97.6871 51.3478 53.9529 92.9703 4.95911e-05 92.9703Z" fill="#0C0B13"/>
<path d="M97.6871 203.126H2.28882e-05V110.156C53.9529 110.156 97.6871 151.778 97.6871 203.126Z" fill="#0C0B13"/>
<path d="M92.7435 101.264C92.7435 49.9898 136.365 8.40112 190.223 8.29407V64.5608C169.016 64.6679 151.865 81.0644 151.865 101.264C151.865 121.47 169.016 137.861 190.223 137.968V194.235C136.365 194.128 92.7435 152.544 92.7435 101.264Z" fill="#0C0B13"/>
<path d="M166.157 101.264C166.157 88.5754 176.909 78.2698 190.224 78.1627V124.366C176.909 124.259 166.157 113.959 166.157 101.264Z" fill="#0C0B13"/>
</svg>
