<svg width="191" height="204" viewBox="0 0 191 204" fill="none" xmlns="http://www.w3.org/2000/svg">
<path d="M0 92.9703V0H97.6871C97.6871 51.3478 53.9529 92.9703 0 92.9703Z" fill="#0C0B13"/>
<path d="M97.6871 203.126H0V110.156C53.9529 110.156 97.6871 151.778 97.6871 203.126Z" fill="#0C0B13"/>
<path d="M92.7437 101.264C92.7437 49.9897 136.365 8.401 190.224 8.29395V64.5607C169.017 64.6677 151.865 81.0643 151.865 101.264C151.865 121.47 169.017 137.861 190.224 137.968V194.235C136.365 194.127 92.7437 152.544 92.7437 101.264Z" fill="#0C0B13"/>
<path d="M166.157 101.264C166.157 88.5753 176.909 78.2697 190.224 78.1626V124.366C176.909 124.259 166.157 113.959 166.157 101.264Z" fill="#0C0B13"/>
</svg>
